<mxfile host="Electron" modified="2024-06-02T11:49:06.155Z" agent="Mozilla/5.0 (Windows NT 10.0; Win64; x64) AppleWebKit/537.36 (KHTML, like Gecko) draw.io/24.4.6 Chrome/124.0.6367.207 Electron/30.0.6 Safari/537.36" etag="PE3uTfMgnOvycvG832D4" version="24.4.6" type="device">
  <diagram id="C5RBs43oDa-KdzZeNtuy" name="Page-1">
    <mxGraphModel dx="1036" dy="704" grid="1" gridSize="10" guides="1" tooltips="1" connect="1" arrows="1" fold="1" page="1" pageScale="1" pageWidth="3600" pageHeight="1500" background="none" math="0" shadow="0">
      <root>
        <mxCell id="WIyWlLk6GJQsqaUBKTNV-0" />
        <mxCell id="WIyWlLk6GJQsqaUBKTNV-1" parent="WIyWlLk6GJQsqaUBKTNV-0" />
        <mxCell id="HRsbSEC_UIwpaZMOYt87-22" value="&lt;span style=&quot;font-style: italic; text-wrap: nowrap;&quot;&gt;UserAccount&lt;/span&gt;" style="html=1;whiteSpace=wrap;rounded=1;labelBackgroundColor=none;fillColor=#F45B69;strokeColor=#028090;fontColor=#E4FDE1;" parent="WIyWlLk6GJQsqaUBKTNV-1" vertex="1">
          <mxGeometry x="800" y="40" width="120" height="40" as="geometry" />
        </mxCell>
        <mxCell id="HRsbSEC_UIwpaZMOYt87-24" value="&lt;span style=&quot;font-style: italic; text-wrap: nowrap;&quot;&gt;Student&lt;/span&gt;" style="html=1;whiteSpace=wrap;rounded=1;labelBackgroundColor=none;fillColor=#F45B69;strokeColor=#028090;fontColor=#E4FDE1;" parent="WIyWlLk6GJQsqaUBKTNV-1" vertex="1">
          <mxGeometry x="520" y="160" width="120" height="40" as="geometry" />
        </mxCell>
        <mxCell id="HRsbSEC_UIwpaZMOYt87-25" value="&lt;span style=&quot;font-style: italic; text-wrap: nowrap;&quot;&gt;Advisor&lt;/span&gt;" style="html=1;whiteSpace=wrap;rounded=1;labelBackgroundColor=none;fillColor=#F45B69;strokeColor=#028090;fontColor=#E4FDE1;" parent="WIyWlLk6GJQsqaUBKTNV-1" vertex="1">
          <mxGeometry x="920" y="160" width="120" height="40" as="geometry" />
        </mxCell>
        <mxCell id="HRsbSEC_UIwpaZMOYt87-26" value="&lt;span style=&quot;font-style: italic; text-wrap: nowrap;&quot;&gt;Lecturer&lt;/span&gt;" style="html=1;whiteSpace=wrap;rounded=1;labelBackgroundColor=none;fillColor=#F45B69;strokeColor=#028090;fontColor=#E4FDE1;" parent="WIyWlLk6GJQsqaUBKTNV-1" vertex="1">
          <mxGeometry x="720" y="160" width="120" height="40" as="geometry" />
        </mxCell>
        <mxCell id="HRsbSEC_UIwpaZMOYt87-27" value="&lt;i&gt;Administrator&lt;/i&gt;" style="html=1;whiteSpace=wrap;align=center;rounded=1;labelBackgroundColor=none;fillColor=#F45B69;strokeColor=#028090;fontColor=#E4FDE1;" parent="WIyWlLk6GJQsqaUBKTNV-1" vertex="1">
          <mxGeometry x="1120" y="160" width="120" height="40" as="geometry" />
        </mxCell>
        <mxCell id="HRsbSEC_UIwpaZMOYt87-35" value="&lt;span style=&quot;font-style: italic; text-wrap: nowrap;&quot;&gt;System&lt;/span&gt;" style="html=1;whiteSpace=wrap;rounded=1;labelBackgroundColor=none;fillColor=#F45B69;strokeColor=#028090;fontColor=#E4FDE1;" parent="WIyWlLk6GJQsqaUBKTNV-1" vertex="1">
          <mxGeometry x="1480" y="160" width="120" height="40" as="geometry" />
        </mxCell>
        <mxCell id="HRsbSEC_UIwpaZMOYt87-36" value="&lt;span style=&quot;text-wrap: nowrap;&quot;&gt;&lt;i&gt;MainScreen&lt;/i&gt;&lt;/span&gt;" style="html=1;whiteSpace=wrap;rounded=1;labelBackgroundColor=none;fillColor=#F45B69;strokeColor=#028090;fontColor=#E4FDE1;" parent="WIyWlLk6GJQsqaUBKTNV-1" vertex="1">
          <mxGeometry x="1600" y="40" width="120" height="40" as="geometry" />
        </mxCell>
        <mxCell id="HRsbSEC_UIwpaZMOYt87-37" value="&lt;span style=&quot;font-style: italic; text-wrap: nowrap;&quot;&gt;Giriş Ekranı&lt;/span&gt;" style="html=1;whiteSpace=wrap;rounded=1;labelBackgroundColor=none;fillColor=#F45B69;strokeColor=#028090;fontColor=#E4FDE1;" parent="WIyWlLk6GJQsqaUBKTNV-1" vertex="1">
          <mxGeometry x="1360" y="40" width="120" height="40" as="geometry" />
        </mxCell>
        <mxCell id="HRsbSEC_UIwpaZMOYt87-39" value="" style="endArrow=diamondThin;endFill=1;endSize=24;html=1;rounded=1;entryX=0.5;entryY=0;entryDx=0;entryDy=0;labelBackgroundColor=none;strokeColor=#028090;fontColor=default;exitX=0.25;exitY=1;exitDx=0;exitDy=0;" parent="WIyWlLk6GJQsqaUBKTNV-1" source="HRsbSEC_UIwpaZMOYt87-36" target="HRsbSEC_UIwpaZMOYt87-35" edge="1">
          <mxGeometry width="160" relative="1" as="geometry">
            <mxPoint x="1580" y="70" as="sourcePoint" />
            <mxPoint x="1510" y="230" as="targetPoint" />
            <Array as="points">
              <mxPoint x="1580" y="80" />
              <mxPoint x="1580" y="120" />
              <mxPoint x="1540" y="120" />
            </Array>
          </mxGeometry>
        </mxCell>
        <mxCell id="HRsbSEC_UIwpaZMOYt87-47" value="&lt;span style=&quot;text-wrap: nowrap;&quot;&gt;&lt;i&gt;StudentMainScreen&lt;/i&gt;&lt;/span&gt;" style="html=1;whiteSpace=wrap;rounded=1;labelBackgroundColor=none;fillColor=#F45B69;strokeColor=#028090;fontColor=#E4FDE1;" parent="WIyWlLk6GJQsqaUBKTNV-1" vertex="1">
          <mxGeometry x="1480" y="280" width="120" height="40" as="geometry" />
        </mxCell>
        <mxCell id="HRsbSEC_UIwpaZMOYt87-48" value="&lt;span style=&quot;text-wrap: nowrap;&quot;&gt;&lt;i&gt;ManagerMainScreen&lt;/i&gt;&lt;/span&gt;" style="html=1;whiteSpace=wrap;rounded=1;strokeColor=#028090;labelBackgroundColor=none;fillColor=#F45B69;fontColor=#E4FDE1;" parent="WIyWlLk6GJQsqaUBKTNV-1" vertex="1">
          <mxGeometry x="1480" y="400" width="120" height="40" as="geometry" />
        </mxCell>
        <mxCell id="HRsbSEC_UIwpaZMOYt87-49" value="&lt;span style=&quot;text-wrap: nowrap;&quot;&gt;&lt;i&gt;AdvisorMainScreen&lt;/i&gt;&lt;/span&gt;" style="html=1;whiteSpace=wrap;rounded=1;labelBackgroundColor=none;fillColor=#F45B69;strokeColor=#028090;fontColor=#E4FDE1;" parent="WIyWlLk6GJQsqaUBKTNV-1" vertex="1">
          <mxGeometry x="1720" y="400" width="120" height="40" as="geometry" />
        </mxCell>
        <mxCell id="HRsbSEC_UIwpaZMOYt87-50" value="&lt;span style=&quot;text-wrap: nowrap;&quot;&gt;&lt;i&gt;LecturerMainScreen&lt;/i&gt;&lt;/span&gt;" style="html=1;whiteSpace=wrap;rounded=1;labelBackgroundColor=none;fillColor=#F45B69;strokeColor=#028090;fontColor=#E4FDE1;" parent="WIyWlLk6GJQsqaUBKTNV-1" vertex="1">
          <mxGeometry x="1720" y="280" width="120" height="40" as="geometry" />
        </mxCell>
        <mxCell id="HRsbSEC_UIwpaZMOYt87-58" value="" style="endArrow=diamondThin;endFill=1;endSize=24;html=1;rounded=1;entryX=0.5;entryY=0;entryDx=0;entryDy=0;labelBackgroundColor=none;strokeColor=#028090;fontColor=default;exitX=0.75;exitY=1;exitDx=0;exitDy=0;" parent="WIyWlLk6GJQsqaUBKTNV-1" source="HRsbSEC_UIwpaZMOYt87-37" target="HRsbSEC_UIwpaZMOYt87-35" edge="1">
          <mxGeometry width="160" relative="1" as="geometry">
            <mxPoint x="1420" y="160" as="sourcePoint" />
            <mxPoint x="1540" y="90" as="targetPoint" />
            <Array as="points">
              <mxPoint x="1500" y="80" />
              <mxPoint x="1500" y="120" />
              <mxPoint x="1540" y="120" />
            </Array>
          </mxGeometry>
        </mxCell>
        <mxCell id="HRsbSEC_UIwpaZMOYt87-59" value="&lt;span style=&quot;text-wrap: nowrap;&quot;&gt;&lt;i&gt;CoursesScreen&lt;/i&gt;&lt;/span&gt;" style="html=1;whiteSpace=wrap;rounded=1;labelBackgroundColor=none;fillColor=#F45B69;strokeColor=#028090;fontColor=#E4FDE1;" parent="WIyWlLk6GJQsqaUBKTNV-1" vertex="1">
          <mxGeometry x="1280" y="280" width="120" height="40" as="geometry" />
        </mxCell>
        <mxCell id="HRsbSEC_UIwpaZMOYt87-61" value="&lt;span style=&quot;text-wrap: nowrap;&quot;&gt;&lt;i&gt;ScheduleScreen&lt;/i&gt;&lt;/span&gt;" style="html=1;whiteSpace=wrap;rounded=1;labelBackgroundColor=none;fillColor=#F45B69;strokeColor=#028090;fontColor=#E4FDE1;" parent="WIyWlLk6GJQsqaUBKTNV-1" vertex="1">
          <mxGeometry x="2000" y="120" width="120" height="40" as="geometry" />
        </mxCell>
        <mxCell id="HRsbSEC_UIwpaZMOYt87-62" value="&lt;span style=&quot;text-wrap: nowrap;&quot;&gt;&lt;i&gt;UserInfoScreen&lt;/i&gt;&lt;/span&gt;" style="html=1;whiteSpace=wrap;rounded=1;labelBackgroundColor=none;fillColor=#F45B69;strokeColor=#028090;fontColor=#E4FDE1;" parent="WIyWlLk6GJQsqaUBKTNV-1" vertex="1">
          <mxGeometry x="2000" y="40" width="120" height="40" as="geometry" />
        </mxCell>
        <mxCell id="HRsbSEC_UIwpaZMOYt87-63" value="&lt;span style=&quot;text-wrap: nowrap;&quot;&gt;&lt;i&gt;ApplicationsScreen&lt;/i&gt;&lt;/span&gt;" style="html=1;whiteSpace=wrap;rounded=1;labelBackgroundColor=none;fillColor=#F45B69;strokeColor=#028090;fontColor=#E4FDE1;" parent="WIyWlLk6GJQsqaUBKTNV-1" vertex="1">
          <mxGeometry x="2000" y="400" width="120" height="40" as="geometry" />
        </mxCell>
        <mxCell id="HRsbSEC_UIwpaZMOYt87-67" value="" style="endArrow=diamondThin;endFill=1;endSize=24;html=1;rounded=1;entryX=0;entryY=0.5;entryDx=0;entryDy=0;exitX=0.5;exitY=1;exitDx=0;exitDy=0;labelBackgroundColor=none;strokeColor=#B20000;fontColor=default;fillColor=#e51400;" parent="WIyWlLk6GJQsqaUBKTNV-1" source="HRsbSEC_UIwpaZMOYt87-59" target="HRsbSEC_UIwpaZMOYt87-47" edge="1">
          <mxGeometry width="160" relative="1" as="geometry">
            <mxPoint x="1360" y="290" as="sourcePoint" />
            <mxPoint x="1520" y="390" as="targetPoint" />
            <Array as="points">
              <mxPoint x="1340" y="340" />
              <mxPoint x="1450" y="340" />
              <mxPoint x="1450" y="300" />
            </Array>
          </mxGeometry>
        </mxCell>
        <mxCell id="HRsbSEC_UIwpaZMOYt87-68" value="" style="endArrow=diamondThin;endFill=1;endSize=24;html=1;rounded=1;exitX=0;exitY=0.5;exitDx=0;exitDy=0;fillColor=#F45B69;strokeColor=#028090;labelBackgroundColor=none;fontColor=default;entryX=1;entryY=0.5;entryDx=0;entryDy=0;" parent="WIyWlLk6GJQsqaUBKTNV-1" source="HRsbSEC_UIwpaZMOYt87-62" target="HRsbSEC_UIwpaZMOYt87-36" edge="1">
          <mxGeometry width="160" relative="1" as="geometry">
            <mxPoint x="1740" y="110" as="sourcePoint" />
            <mxPoint x="1800" y="50" as="targetPoint" />
            <Array as="points">
              <mxPoint x="1850" y="60" />
            </Array>
          </mxGeometry>
        </mxCell>
        <mxCell id="HRsbSEC_UIwpaZMOYt87-69" value="" style="endArrow=diamondThin;endFill=1;endSize=24;html=1;rounded=1;exitX=0;exitY=0.5;exitDx=0;exitDy=0;fillColor=#F45B69;strokeColor=#028090;labelBackgroundColor=none;fontColor=default;entryX=1;entryY=0.5;entryDx=0;entryDy=0;" parent="WIyWlLk6GJQsqaUBKTNV-1" source="HRsbSEC_UIwpaZMOYt87-61" target="HRsbSEC_UIwpaZMOYt87-36" edge="1">
          <mxGeometry width="160" relative="1" as="geometry">
            <mxPoint x="1800" y="170" as="sourcePoint" />
            <mxPoint x="1790" y="100" as="targetPoint" />
            <Array as="points">
              <mxPoint x="1880" y="140" />
              <mxPoint x="1880" y="60" />
            </Array>
          </mxGeometry>
        </mxCell>
        <mxCell id="HRsbSEC_UIwpaZMOYt87-71" value="&lt;span style=&quot;text-wrap: nowrap;&quot;&gt;&lt;i&gt;&lt;font style=&quot;font-size: 10px;&quot;&gt;CourseSelectionScreen&lt;/font&gt;&lt;/i&gt;&lt;/span&gt;" style="html=1;whiteSpace=wrap;rounded=1;labelBackgroundColor=none;fillColor=#F45B69;strokeColor=#028090;fontColor=#E4FDE1;" parent="WIyWlLk6GJQsqaUBKTNV-1" vertex="1">
          <mxGeometry x="1280" y="360" width="120" height="40" as="geometry" />
        </mxCell>
        <mxCell id="HRsbSEC_UIwpaZMOYt87-73" value="Faculty" style="html=1;whiteSpace=wrap;rounded=1;labelBackgroundColor=none;fillColor=#F45B69;strokeColor=#028090;fontColor=#E4FDE1;" parent="WIyWlLk6GJQsqaUBKTNV-1" vertex="1">
          <mxGeometry x="200" y="40" width="120" height="40" as="geometry" />
        </mxCell>
        <mxCell id="HRsbSEC_UIwpaZMOYt87-88" value="" style="endArrow=diamondThin;endFill=1;endSize=24;html=1;rounded=1;exitX=0;exitY=0.5;exitDx=0;exitDy=0;entryX=1;entryY=0.5;entryDx=0;entryDy=0;labelBackgroundColor=none;strokeColor=#028090;fontColor=default;" parent="WIyWlLk6GJQsqaUBKTNV-1" source="HRsbSEC_UIwpaZMOYt87-63" target="HRsbSEC_UIwpaZMOYt87-49" edge="1">
          <mxGeometry width="160" relative="1" as="geometry">
            <mxPoint x="1960" y="510" as="sourcePoint" />
            <mxPoint x="2120" y="510" as="targetPoint" />
          </mxGeometry>
        </mxCell>
        <mxCell id="HRsbSEC_UIwpaZMOYt87-89" value="Course" style="html=1;whiteSpace=wrap;rounded=1;labelBackgroundColor=none;fillColor=#F45B69;strokeColor=#028090;fontColor=#E4FDE1;" parent="WIyWlLk6GJQsqaUBKTNV-1" vertex="1">
          <mxGeometry x="1040" y="360" width="120" height="40" as="geometry" />
        </mxCell>
        <mxCell id="HRsbSEC_UIwpaZMOYt87-106" value="" style="endArrow=open;endFill=1;endSize=12;html=1;rounded=1;exitX=0;exitY=0.5;exitDx=0;exitDy=0;entryX=1;entryY=0.5;entryDx=0;entryDy=0;labelBackgroundColor=none;strokeColor=#028090;fontColor=default;" parent="WIyWlLk6GJQsqaUBKTNV-1" source="HRsbSEC_UIwpaZMOYt87-36" target="HRsbSEC_UIwpaZMOYt87-37" edge="1">
          <mxGeometry width="160" relative="1" as="geometry">
            <mxPoint x="1480" y="220" as="sourcePoint" />
            <mxPoint x="1640" y="220" as="targetPoint" />
            <Array as="points">
              <mxPoint x="1560" y="60" />
              <mxPoint x="1510" y="60" />
            </Array>
          </mxGeometry>
        </mxCell>
        <mxCell id="HRsbSEC_UIwpaZMOYt87-118" value="" style="endArrow=block;endSize=16;endFill=0;html=1;rounded=1;exitX=0.5;exitY=0;exitDx=0;exitDy=0;entryX=0.5;entryY=1;entryDx=0;entryDy=0;labelBackgroundColor=none;strokeColor=#028090;fontColor=default;" parent="WIyWlLk6GJQsqaUBKTNV-1" source="HRsbSEC_UIwpaZMOYt87-24" target="HRsbSEC_UIwpaZMOYt87-22" edge="1">
          <mxGeometry width="160" relative="1" as="geometry">
            <mxPoint x="710" y="150" as="sourcePoint" />
            <mxPoint x="830" y="80" as="targetPoint" />
            <Array as="points">
              <mxPoint x="580" y="120" />
              <mxPoint x="740" y="120" />
              <mxPoint x="860" y="120" />
            </Array>
            <mxPoint as="offset" />
          </mxGeometry>
        </mxCell>
        <mxCell id="HRsbSEC_UIwpaZMOYt87-119" value="" style="endArrow=block;endSize=16;endFill=0;html=1;rounded=1;exitX=0.5;exitY=0;exitDx=0;exitDy=0;entryX=0.5;entryY=1;entryDx=0;entryDy=0;labelBackgroundColor=none;strokeColor=#028090;fontColor=default;" parent="WIyWlLk6GJQsqaUBKTNV-1" source="HRsbSEC_UIwpaZMOYt87-25" target="HRsbSEC_UIwpaZMOYt87-22" edge="1">
          <mxGeometry width="160" relative="1" as="geometry">
            <mxPoint x="750" y="180" as="sourcePoint" />
            <mxPoint x="920" y="130" as="targetPoint" />
            <Array as="points">
              <mxPoint x="980" y="120" />
              <mxPoint x="860" y="120" />
            </Array>
            <mxPoint as="offset" />
          </mxGeometry>
        </mxCell>
        <mxCell id="HRsbSEC_UIwpaZMOYt87-120" value="" style="endArrow=block;endSize=16;endFill=0;html=1;rounded=1;labelBackgroundColor=none;strokeColor=#028090;fontColor=default;exitX=0.5;exitY=0;exitDx=0;exitDy=0;" parent="WIyWlLk6GJQsqaUBKTNV-1" source="HRsbSEC_UIwpaZMOYt87-26" edge="1">
          <mxGeometry width="160" relative="1" as="geometry">
            <mxPoint x="740" y="160" as="sourcePoint" />
            <mxPoint x="860" y="80" as="targetPoint" />
            <Array as="points">
              <mxPoint x="780" y="120" />
              <mxPoint x="860" y="120" />
            </Array>
            <mxPoint as="offset" />
          </mxGeometry>
        </mxCell>
        <mxCell id="HRsbSEC_UIwpaZMOYt87-123" value="" style="endArrow=block;endSize=16;endFill=0;html=1;rounded=1;fillColor=#F45B69;strokeColor=#028090;labelBackgroundColor=none;fontColor=default;" parent="WIyWlLk6GJQsqaUBKTNV-1" edge="1">
          <mxGeometry width="160" relative="1" as="geometry">
            <mxPoint x="1540" y="280" as="sourcePoint" />
            <mxPoint x="1660" y="80" as="targetPoint" />
            <Array as="points">
              <mxPoint x="1540" y="240" />
              <mxPoint x="1660" y="240" />
            </Array>
            <mxPoint as="offset" />
          </mxGeometry>
        </mxCell>
        <mxCell id="HRsbSEC_UIwpaZMOYt87-124" value="" style="endArrow=block;endSize=16;endFill=0;html=1;rounded=1;fillColor=#F45B69;strokeColor=#028090;labelBackgroundColor=none;fontColor=default;entryX=0.5;entryY=1;entryDx=0;entryDy=0;" parent="WIyWlLk6GJQsqaUBKTNV-1" target="HRsbSEC_UIwpaZMOYt87-36" edge="1">
          <mxGeometry width="160" relative="1" as="geometry">
            <mxPoint x="1780" y="280" as="sourcePoint" />
            <mxPoint x="1670" y="110" as="targetPoint" />
            <Array as="points">
              <mxPoint x="1780" y="240" />
              <mxPoint x="1660" y="240" />
            </Array>
            <mxPoint as="offset" />
          </mxGeometry>
        </mxCell>
        <mxCell id="HRsbSEC_UIwpaZMOYt87-137" value="CourseDetailScreen" style="html=1;whiteSpace=wrap;rounded=1;labelBackgroundColor=none;fillColor=#F45B69;strokeColor=#028090;fontColor=#E4FDE1;" parent="WIyWlLk6GJQsqaUBKTNV-1" vertex="1">
          <mxGeometry x="1280" y="440" width="120" height="40" as="geometry" />
        </mxCell>
        <mxCell id="HRsbSEC_UIwpaZMOYt87-145" value="&lt;span style=&quot;text-wrap: nowrap;&quot;&gt;&lt;i&gt;GradeEntryScreen&lt;/i&gt;&lt;/span&gt;" style="html=1;whiteSpace=wrap;rounded=1;labelBackgroundColor=none;fillColor=#F45B69;strokeColor=#028090;fontColor=#E4FDE1;" parent="WIyWlLk6GJQsqaUBKTNV-1" vertex="1">
          <mxGeometry x="2000" y="280" width="120" height="40" as="geometry" />
        </mxCell>
        <mxCell id="HRsbSEC_UIwpaZMOYt87-146" value="" style="endArrow=diamondThin;endFill=1;endSize=24;html=1;rounded=1;exitX=0;exitY=0.5;exitDx=0;exitDy=0;entryX=1;entryY=0.5;entryDx=0;entryDy=0;fillColor=#F45B69;strokeColor=#028090;labelBackgroundColor=none;fontColor=default;" parent="WIyWlLk6GJQsqaUBKTNV-1" source="HRsbSEC_UIwpaZMOYt87-145" target="HRsbSEC_UIwpaZMOYt87-50" edge="1">
          <mxGeometry width="160" relative="1" as="geometry">
            <mxPoint x="2160" y="280" as="sourcePoint" />
            <mxPoint x="1880" y="310" as="targetPoint" />
            <Array as="points" />
          </mxGeometry>
        </mxCell>
        <mxCell id="HRsbSEC_UIwpaZMOYt87-171" value="" style="endArrow=block;startArrow=block;endFill=1;startFill=1;html=1;rounded=1;exitX=0;exitY=0.5;exitDx=0;exitDy=0;labelBackgroundColor=none;strokeColor=#028090;fontColor=default;entryX=1;entryY=0.5;entryDx=0;entryDy=0;" parent="WIyWlLk6GJQsqaUBKTNV-1" source="HRsbSEC_UIwpaZMOYt87-37" target="sTvr0ehfiAIf0PpwYISD-98" edge="1">
          <mxGeometry width="160" relative="1" as="geometry">
            <mxPoint x="1190" y="60" as="sourcePoint" />
            <mxPoint x="990" y="60" as="targetPoint" />
            <Array as="points">
              <mxPoint x="1320" y="60" />
              <mxPoint x="1200" y="60" />
              <mxPoint x="1110" y="60" />
            </Array>
          </mxGeometry>
        </mxCell>
        <mxCell id="HRsbSEC_UIwpaZMOYt87-172" value="girişYap" style="edgeLabel;html=1;align=center;verticalAlign=middle;resizable=0;points=[];rounded=1;labelBackgroundColor=none;fontColor=#000000;" parent="HRsbSEC_UIwpaZMOYt87-171" vertex="1" connectable="0">
          <mxGeometry x="0.04" y="-1" relative="1" as="geometry">
            <mxPoint as="offset" />
          </mxGeometry>
        </mxCell>
        <mxCell id="S6y_KCnDZLDPWBw1cH6A-22" value="" style="endArrow=block;endSize=16;endFill=0;html=1;rounded=1;fillColor=#F45B69;strokeColor=#028090;labelBackgroundColor=none;fontColor=default;exitX=0.5;exitY=0;exitDx=0;exitDy=0;" parent="WIyWlLk6GJQsqaUBKTNV-1" source="HRsbSEC_UIwpaZMOYt87-48" edge="1">
          <mxGeometry width="160" relative="1" as="geometry">
            <mxPoint x="1540" y="400" as="sourcePoint" />
            <mxPoint x="1660" y="80" as="targetPoint" />
            <Array as="points">
              <mxPoint x="1540" y="360" />
              <mxPoint x="1610" y="360" />
              <mxPoint x="1660" y="360" />
            </Array>
            <mxPoint as="offset" />
          </mxGeometry>
        </mxCell>
        <mxCell id="S6y_KCnDZLDPWBw1cH6A-23" value="" style="endArrow=block;endSize=16;endFill=0;html=1;rounded=1;fillColor=#F45B69;strokeColor=#028090;labelBackgroundColor=none;fontColor=default;" parent="WIyWlLk6GJQsqaUBKTNV-1" edge="1">
          <mxGeometry width="160" relative="1" as="geometry">
            <mxPoint x="1780" y="400" as="sourcePoint" />
            <mxPoint x="1660" y="80" as="targetPoint" />
            <Array as="points">
              <mxPoint x="1780" y="360" />
              <mxPoint x="1660" y="360" />
            </Array>
            <mxPoint as="offset" />
          </mxGeometry>
        </mxCell>
        <mxCell id="cDQj4f9Aj8YG3tiFzV7H-1" value="" style="endArrow=block;endSize=16;endFill=0;html=1;rounded=1;exitX=0.5;exitY=0;exitDx=0;exitDy=0;entryX=0.5;entryY=1;entryDx=0;entryDy=0;labelBackgroundColor=none;strokeColor=#028090;fontColor=default;" parent="WIyWlLk6GJQsqaUBKTNV-1" source="HRsbSEC_UIwpaZMOYt87-27" target="HRsbSEC_UIwpaZMOYt87-22" edge="1">
          <mxGeometry width="160" relative="1" as="geometry">
            <mxPoint x="1140" y="150" as="sourcePoint" />
            <mxPoint x="1020" y="70" as="targetPoint" />
            <Array as="points">
              <mxPoint x="1180" y="120" />
              <mxPoint x="1125" y="120" />
              <mxPoint x="860" y="120" />
            </Array>
            <mxPoint as="offset" />
          </mxGeometry>
        </mxCell>
        <mxCell id="cDQj4f9Aj8YG3tiFzV7H-3" value="&lt;span style=&quot;text-wrap: nowrap;&quot;&gt;&lt;i&gt;MatchCourseScreen&lt;/i&gt;&lt;/span&gt;" style="html=1;whiteSpace=wrap;rounded=1;labelBackgroundColor=none;fillColor=#F45B69;strokeColor=#028090;fontColor=#E4FDE1;" parent="WIyWlLk6GJQsqaUBKTNV-1" vertex="1">
          <mxGeometry x="2000" y="480" width="120" height="40" as="geometry" />
        </mxCell>
        <mxCell id="cDQj4f9Aj8YG3tiFzV7H-4" value="" style="endArrow=diamondThin;endFill=1;endSize=24;html=1;rounded=1;exitX=0;exitY=0.5;exitDx=0;exitDy=0;labelBackgroundColor=none;strokeColor=#028090;fontColor=default;entryX=0.5;entryY=1;entryDx=0;entryDy=0;" parent="WIyWlLk6GJQsqaUBKTNV-1" source="cDQj4f9Aj8YG3tiFzV7H-3" target="HRsbSEC_UIwpaZMOYt87-48" edge="1">
          <mxGeometry width="160" relative="1" as="geometry">
            <mxPoint x="1990" y="499.47" as="sourcePoint" />
            <mxPoint x="1830" y="499" as="targetPoint" />
            <Array as="points">
              <mxPoint x="1540" y="500" />
            </Array>
          </mxGeometry>
        </mxCell>
        <mxCell id="sTvr0ehfiAIf0PpwYISD-0" value="CourseDetails" style="html=1;whiteSpace=wrap;rounded=1;labelBackgroundColor=none;fillColor=#F45B69;strokeColor=#028090;fontColor=#E4FDE1;" parent="WIyWlLk6GJQsqaUBKTNV-1" vertex="1">
          <mxGeometry x="880" y="420" width="120" height="40" as="geometry" />
        </mxCell>
        <mxCell id="sTvr0ehfiAIf0PpwYISD-3" value="University" style="html=1;whiteSpace=wrap;rounded=1;labelBackgroundColor=none;fillColor=#F45B69;strokeColor=#028090;fontColor=#E4FDE1;" parent="WIyWlLk6GJQsqaUBKTNV-1" vertex="1">
          <mxGeometry y="40" width="120" height="40" as="geometry" />
        </mxCell>
        <mxCell id="sTvr0ehfiAIf0PpwYISD-4" value="Department" style="html=1;whiteSpace=wrap;rounded=1;labelBackgroundColor=none;fillColor=#F45B69;strokeColor=#028090;fontColor=#E4FDE1;" parent="WIyWlLk6GJQsqaUBKTNV-1" vertex="1">
          <mxGeometry x="400" y="40" width="120" height="40" as="geometry" />
        </mxCell>
        <mxCell id="sTvr0ehfiAIf0PpwYISD-5" value="&lt;span style=&quot;font-style: italic; text-wrap: nowrap;&quot;&gt;StudentDepDetails&lt;/span&gt;" style="html=1;whiteSpace=wrap;rounded=1;labelBackgroundColor=none;fillColor=#F45B69;strokeColor=#028090;fontColor=#E4FDE1;" parent="WIyWlLk6GJQsqaUBKTNV-1" vertex="1">
          <mxGeometry x="520" y="280" width="120" height="40" as="geometry" />
        </mxCell>
        <mxCell id="sTvr0ehfiAIf0PpwYISD-6" value="&lt;span style=&quot;font-style: italic; text-wrap: nowrap;&quot;&gt;LecturerDepDetails&lt;/span&gt;" style="html=1;whiteSpace=wrap;rounded=1;labelBackgroundColor=none;fillColor=#F45B69;strokeColor=#028090;fontColor=#E4FDE1;" parent="WIyWlLk6GJQsqaUBKTNV-1" vertex="1">
          <mxGeometry x="720" y="280" width="120" height="40" as="geometry" />
        </mxCell>
        <mxCell id="sTvr0ehfiAIf0PpwYISD-7" value="" style="endArrow=open;html=1;endSize=12;startArrow=diamondThin;startSize=14;startFill=0;edgeStyle=orthogonalEdgeStyle;rounded=0;exitX=0.5;exitY=1;exitDx=0;exitDy=0;entryX=0.5;entryY=0;entryDx=0;entryDy=0;fillColor=#b0e3e6;strokeColor=#0e8088;" parent="WIyWlLk6GJQsqaUBKTNV-1" source="HRsbSEC_UIwpaZMOYt87-24" target="sTvr0ehfiAIf0PpwYISD-5" edge="1">
          <mxGeometry relative="1" as="geometry">
            <mxPoint x="550" y="240" as="sourcePoint" />
            <mxPoint x="710" y="240" as="targetPoint" />
          </mxGeometry>
        </mxCell>
        <mxCell id="sTvr0ehfiAIf0PpwYISD-9" value="N" style="edgeLabel;resizable=0;html=1;align=right;verticalAlign=top;" parent="sTvr0ehfiAIf0PpwYISD-7" connectable="0" vertex="1">
          <mxGeometry x="1" relative="1" as="geometry">
            <mxPoint y="-30" as="offset" />
          </mxGeometry>
        </mxCell>
        <mxCell id="sTvr0ehfiAIf0PpwYISD-11" value="" style="endArrow=open;html=1;endSize=12;startArrow=diamondThin;startSize=14;startFill=0;edgeStyle=orthogonalEdgeStyle;rounded=0;exitX=0.5;exitY=1;exitDx=0;exitDy=0;fillColor=#b0e3e6;strokeColor=#0e8088;" parent="WIyWlLk6GJQsqaUBKTNV-1" source="HRsbSEC_UIwpaZMOYt87-26" edge="1">
          <mxGeometry relative="1" as="geometry">
            <mxPoint x="779.5699999999999" y="210" as="sourcePoint" />
            <mxPoint x="780" y="280" as="targetPoint" />
          </mxGeometry>
        </mxCell>
        <mxCell id="sTvr0ehfiAIf0PpwYISD-12" value="N" style="edgeLabel;resizable=0;html=1;align=right;verticalAlign=top;" parent="sTvr0ehfiAIf0PpwYISD-11" connectable="0" vertex="1">
          <mxGeometry x="1" relative="1" as="geometry">
            <mxPoint y="-30" as="offset" />
          </mxGeometry>
        </mxCell>
        <mxCell id="sTvr0ehfiAIf0PpwYISD-17" value="" style="endArrow=open;html=1;endSize=12;startArrow=diamondThin;startSize=14;startFill=0;edgeStyle=orthogonalEdgeStyle;rounded=1;exitX=0.5;exitY=1;exitDx=0;exitDy=0;entryX=0;entryY=0.5;entryDx=0;entryDy=0;fillColor=#b0e3e6;strokeColor=#0e8088;curved=0;" parent="WIyWlLk6GJQsqaUBKTNV-1" source="sTvr0ehfiAIf0PpwYISD-4" target="sTvr0ehfiAIf0PpwYISD-5" edge="1">
          <mxGeometry relative="1" as="geometry">
            <mxPoint x="360" y="190" as="sourcePoint" />
            <mxPoint x="520" y="190" as="targetPoint" />
          </mxGeometry>
        </mxCell>
        <mxCell id="sTvr0ehfiAIf0PpwYISD-19" value="N" style="edgeLabel;resizable=0;html=1;align=right;verticalAlign=top;" parent="sTvr0ehfiAIf0PpwYISD-17" connectable="0" vertex="1">
          <mxGeometry x="1" relative="1" as="geometry">
            <mxPoint x="-20" y="-20" as="offset" />
          </mxGeometry>
        </mxCell>
        <mxCell id="sTvr0ehfiAIf0PpwYISD-20" value="1" style="endArrow=open;html=1;endSize=12;startArrow=diamondThin;startSize=14;startFill=1;edgeStyle=orthogonalEdgeStyle;align=left;verticalAlign=bottom;rounded=0;exitX=1;exitY=0.5;exitDx=0;exitDy=0;entryX=0;entryY=0.5;entryDx=0;entryDy=0;movable=1;resizable=1;rotatable=1;deletable=1;editable=1;locked=0;connectable=1;fillColor=#b0e3e6;strokeColor=#0e8088;" parent="WIyWlLk6GJQsqaUBKTNV-1" source="HRsbSEC_UIwpaZMOYt87-73" target="sTvr0ehfiAIf0PpwYISD-4" edge="1">
          <mxGeometry x="-1" y="3" relative="1" as="geometry">
            <mxPoint x="350" y="10" as="sourcePoint" />
            <mxPoint x="510" y="10" as="targetPoint" />
          </mxGeometry>
        </mxCell>
        <mxCell id="sTvr0ehfiAIf0PpwYISD-21" value="N" style="edgeLabel;html=1;align=center;verticalAlign=middle;resizable=0;points=[];movable=0;rotatable=0;deletable=0;editable=0;locked=1;connectable=0;" parent="sTvr0ehfiAIf0PpwYISD-20" vertex="1" connectable="0">
          <mxGeometry x="0.2837" y="2" relative="1" as="geometry">
            <mxPoint x="9" y="-8" as="offset" />
          </mxGeometry>
        </mxCell>
        <mxCell id="sTvr0ehfiAIf0PpwYISD-23" value="1" style="endArrow=open;html=1;endSize=12;startArrow=diamondThin;startSize=14;startFill=1;edgeStyle=orthogonalEdgeStyle;align=left;verticalAlign=bottom;rounded=0;exitX=1;exitY=0.5;exitDx=0;exitDy=0;movable=1;resizable=1;rotatable=1;deletable=1;editable=1;locked=0;connectable=1;fillColor=#b0e3e6;strokeColor=#0e8088;entryX=0;entryY=0.5;entryDx=0;entryDy=0;" parent="WIyWlLk6GJQsqaUBKTNV-1" edge="1" target="HRsbSEC_UIwpaZMOYt87-73">
          <mxGeometry x="-1" y="3" relative="1" as="geometry">
            <mxPoint x="120" y="59.56999999999999" as="sourcePoint" />
            <mxPoint x="150" y="90" as="targetPoint" />
          </mxGeometry>
        </mxCell>
        <mxCell id="sTvr0ehfiAIf0PpwYISD-24" value="N" style="edgeLabel;html=1;align=center;verticalAlign=middle;resizable=0;points=[];movable=0;rotatable=0;deletable=0;editable=0;locked=1;connectable=0;" parent="sTvr0ehfiAIf0PpwYISD-23" vertex="1" connectable="0">
          <mxGeometry x="0.2837" y="2" relative="1" as="geometry">
            <mxPoint x="9" y="-8" as="offset" />
          </mxGeometry>
        </mxCell>
        <mxCell id="sTvr0ehfiAIf0PpwYISD-26" value="&lt;span style=&quot;text-wrap: nowrap;&quot;&gt;&lt;i&gt;Screen&lt;/i&gt;&lt;/span&gt;" style="html=1;whiteSpace=wrap;rounded=1;labelBackgroundColor=none;fillColor=#F45B69;strokeColor=#028090;fontColor=#E4FDE1;" parent="WIyWlLk6GJQsqaUBKTNV-1" vertex="1">
          <mxGeometry x="2280" y="200" width="120" height="40" as="geometry" />
        </mxCell>
        <mxCell id="sTvr0ehfiAIf0PpwYISD-27" value="" style="endArrow=block;endSize=16;endFill=0;html=1;rounded=1;fillColor=#F45B69;strokeColor=#028090;labelBackgroundColor=none;fontColor=default;entryX=0;entryY=0.5;entryDx=0;entryDy=0;exitX=1;exitY=0.5;exitDx=0;exitDy=0;" parent="WIyWlLk6GJQsqaUBKTNV-1" source="HRsbSEC_UIwpaZMOYt87-145" target="sTvr0ehfiAIf0PpwYISD-26" edge="1">
          <mxGeometry width="160" relative="1" as="geometry">
            <mxPoint x="2310" y="410" as="sourcePoint" />
            <mxPoint x="2190" y="90" as="targetPoint" />
            <Array as="points">
              <mxPoint x="2160" y="300" />
              <mxPoint x="2160" y="220" />
            </Array>
            <mxPoint as="offset" />
          </mxGeometry>
        </mxCell>
        <mxCell id="sTvr0ehfiAIf0PpwYISD-28" value="" style="endArrow=block;endSize=16;endFill=0;html=1;rounded=1;fillColor=#F45B69;strokeColor=#028090;labelBackgroundColor=none;fontColor=default;entryX=0;entryY=0.5;entryDx=0;entryDy=0;exitX=1;exitY=0.5;exitDx=0;exitDy=0;" parent="WIyWlLk6GJQsqaUBKTNV-1" source="HRsbSEC_UIwpaZMOYt87-61" target="sTvr0ehfiAIf0PpwYISD-26" edge="1">
          <mxGeometry width="160" relative="1" as="geometry">
            <mxPoint x="2060" y="230" as="sourcePoint" />
            <mxPoint x="2240" y="190" as="targetPoint" />
            <Array as="points">
              <mxPoint x="2160" y="140" />
              <mxPoint x="2160" y="220" />
            </Array>
            <mxPoint as="offset" />
          </mxGeometry>
        </mxCell>
        <mxCell id="sTvr0ehfiAIf0PpwYISD-29" value="" style="endArrow=block;endSize=16;endFill=0;html=1;rounded=1;fillColor=#F45B69;strokeColor=#028090;labelBackgroundColor=none;fontColor=default;entryX=0;entryY=0.5;entryDx=0;entryDy=0;exitX=1;exitY=0.5;exitDx=0;exitDy=0;" parent="WIyWlLk6GJQsqaUBKTNV-1" source="HRsbSEC_UIwpaZMOYt87-62" target="sTvr0ehfiAIf0PpwYISD-26" edge="1">
          <mxGeometry width="160" relative="1" as="geometry">
            <mxPoint x="2070" y="170" as="sourcePoint" />
            <mxPoint x="2250" y="230" as="targetPoint" />
            <Array as="points">
              <mxPoint x="2160" y="60" />
              <mxPoint x="2160" y="220" />
            </Array>
            <mxPoint as="offset" />
          </mxGeometry>
        </mxCell>
        <mxCell id="sTvr0ehfiAIf0PpwYISD-30" value="" style="endArrow=block;endSize=16;endFill=0;html=1;rounded=1;fillColor=#F45B69;strokeColor=#028090;labelBackgroundColor=none;fontColor=default;entryX=0;entryY=0.5;entryDx=0;entryDy=0;exitX=1;exitY=0.5;exitDx=0;exitDy=0;" parent="WIyWlLk6GJQsqaUBKTNV-1" source="HRsbSEC_UIwpaZMOYt87-63" target="sTvr0ehfiAIf0PpwYISD-26" edge="1">
          <mxGeometry width="160" relative="1" as="geometry">
            <mxPoint x="2190" y="330" as="sourcePoint" />
            <mxPoint x="2310" y="490" as="targetPoint" />
            <Array as="points">
              <mxPoint x="2160" y="420" />
              <mxPoint x="2160" y="220" />
            </Array>
            <mxPoint as="offset" />
          </mxGeometry>
        </mxCell>
        <mxCell id="sTvr0ehfiAIf0PpwYISD-31" value="" style="endArrow=block;endSize=16;endFill=0;html=1;rounded=1;fillColor=#F45B69;strokeColor=#028090;labelBackgroundColor=none;fontColor=default;entryX=0;entryY=0.5;entryDx=0;entryDy=0;exitX=1;exitY=0.5;exitDx=0;exitDy=0;" parent="WIyWlLk6GJQsqaUBKTNV-1" source="cDQj4f9Aj8YG3tiFzV7H-3" target="sTvr0ehfiAIf0PpwYISD-26" edge="1">
          <mxGeometry width="160" relative="1" as="geometry">
            <mxPoint x="2120" y="490" as="sourcePoint" />
            <mxPoint x="2240" y="290" as="targetPoint" />
            <Array as="points">
              <mxPoint x="2160" y="500" />
              <mxPoint x="2160" y="220" />
            </Array>
            <mxPoint as="offset" />
          </mxGeometry>
        </mxCell>
        <mxCell id="sTvr0ehfiAIf0PpwYISD-33" value="" style="endArrow=block;endSize=16;endFill=0;html=1;rounded=1;fillColor=#F45B69;strokeColor=#028090;labelBackgroundColor=none;fontColor=default;entryX=0;entryY=0.5;entryDx=0;entryDy=0;exitX=0.5;exitY=0;exitDx=0;exitDy=0;" parent="WIyWlLk6GJQsqaUBKTNV-1" source="HRsbSEC_UIwpaZMOYt87-36" target="sTvr0ehfiAIf0PpwYISD-26" edge="1">
          <mxGeometry width="160" relative="1" as="geometry">
            <mxPoint x="2150" y="450" as="sourcePoint" />
            <mxPoint x="2270" y="250" as="targetPoint" />
            <Array as="points">
              <mxPoint x="1660" y="20" />
              <mxPoint x="2160" y="20" />
              <mxPoint x="2160" y="220" />
            </Array>
            <mxPoint as="offset" />
          </mxGeometry>
        </mxCell>
        <mxCell id="sTvr0ehfiAIf0PpwYISD-34" value="" style="endArrow=block;endSize=16;endFill=0;html=1;rounded=1;fillColor=#F45B69;strokeColor=#028090;labelBackgroundColor=none;fontColor=default;exitX=0.5;exitY=0;exitDx=0;exitDy=0;" parent="WIyWlLk6GJQsqaUBKTNV-1" source="HRsbSEC_UIwpaZMOYt87-37" edge="1">
          <mxGeometry width="160" relative="1" as="geometry">
            <mxPoint x="1410" y="30" as="sourcePoint" />
            <mxPoint x="2280" y="220" as="targetPoint" />
            <Array as="points">
              <mxPoint x="1420" y="20" />
              <mxPoint x="1640" y="20" />
              <mxPoint x="2160" y="20" />
              <mxPoint x="2160" y="220" />
            </Array>
            <mxPoint as="offset" />
          </mxGeometry>
        </mxCell>
        <mxCell id="sTvr0ehfiAIf0PpwYISD-35" value="" style="endArrow=block;endSize=16;endFill=0;html=1;rounded=1;fillColor=#F45B69;strokeColor=#028090;labelBackgroundColor=none;fontColor=default;exitX=1;exitY=0.5;exitDx=0;exitDy=0;" parent="WIyWlLk6GJQsqaUBKTNV-1" source="HRsbSEC_UIwpaZMOYt87-71" edge="1">
          <mxGeometry width="160" relative="1" as="geometry">
            <mxPoint x="1590" y="570" as="sourcePoint" />
            <mxPoint x="2280" y="220" as="targetPoint" />
            <Array as="points">
              <mxPoint x="1440" y="380" />
              <mxPoint x="1440" y="580" />
              <mxPoint x="1620" y="580" />
              <mxPoint x="1770" y="580" />
              <mxPoint x="2080" y="580" />
              <mxPoint x="2120" y="580" />
              <mxPoint x="2160" y="580" />
              <mxPoint x="2160" y="220" />
            </Array>
            <mxPoint as="offset" />
          </mxGeometry>
        </mxCell>
        <mxCell id="sTvr0ehfiAIf0PpwYISD-36" value="" style="endArrow=block;endSize=16;endFill=0;html=1;rounded=1;fillColor=#F45B69;strokeColor=#028090;labelBackgroundColor=none;fontColor=default;exitX=1;exitY=0.5;exitDx=0;exitDy=0;" parent="WIyWlLk6GJQsqaUBKTNV-1" source="HRsbSEC_UIwpaZMOYt87-59" edge="1">
          <mxGeometry width="160" relative="1" as="geometry">
            <mxPoint x="1385" y="280" as="sourcePoint" />
            <mxPoint x="2280" y="220" as="targetPoint" />
            <Array as="points">
              <mxPoint x="1440" y="300" />
              <mxPoint x="1440" y="350" />
              <mxPoint x="1440" y="580" />
              <mxPoint x="1620" y="580" />
              <mxPoint x="1770" y="580" />
              <mxPoint x="2080" y="580" />
              <mxPoint x="2120" y="580" />
              <mxPoint x="2160" y="580" />
              <mxPoint x="2160" y="220" />
            </Array>
            <mxPoint as="offset" />
          </mxGeometry>
        </mxCell>
        <mxCell id="sTvr0ehfiAIf0PpwYISD-37" value="" style="endArrow=block;endSize=16;endFill=0;html=1;rounded=1;fillColor=#F45B69;strokeColor=#028090;labelBackgroundColor=none;fontColor=default;exitX=1;exitY=0.5;exitDx=0;exitDy=0;" parent="WIyWlLk6GJQsqaUBKTNV-1" source="HRsbSEC_UIwpaZMOYt87-137" edge="1">
          <mxGeometry width="160" relative="1" as="geometry">
            <mxPoint x="1209.9999999999995" y="549.9999999999998" as="sourcePoint" />
            <mxPoint x="2280" y="220" as="targetPoint" />
            <Array as="points">
              <mxPoint x="1440" y="460" />
              <mxPoint x="1440" y="580" />
              <mxPoint x="1620" y="580" />
              <mxPoint x="1770" y="580" />
              <mxPoint x="2080" y="580" />
              <mxPoint x="2120" y="580" />
              <mxPoint x="2160" y="580" />
              <mxPoint x="2160" y="220" />
            </Array>
            <mxPoint as="offset" />
          </mxGeometry>
        </mxCell>
        <mxCell id="sTvr0ehfiAIf0PpwYISD-38" value="&lt;font style=&quot;font-size: 11px;&quot;&gt;StudentCourseDetails&lt;/font&gt;" style="html=1;whiteSpace=wrap;rounded=1;labelBackgroundColor=none;fillColor=#F45B69;strokeColor=#028090;fontColor=#E4FDE1;" parent="WIyWlLk6GJQsqaUBKTNV-1" vertex="1">
          <mxGeometry x="720" y="480" width="120" height="40" as="geometry" />
        </mxCell>
        <mxCell id="sTvr0ehfiAIf0PpwYISD-39" value="&lt;span style=&quot;text-wrap: nowrap;&quot;&gt;&lt;i&gt;Header&lt;/i&gt;&lt;/span&gt;" style="html=1;whiteSpace=wrap;rounded=1;labelBackgroundColor=none;fillColor=#F45B69;strokeColor=#028090;fontColor=#E4FDE1;" parent="WIyWlLk6GJQsqaUBKTNV-1" vertex="1">
          <mxGeometry x="2280" y="320" width="120" height="40" as="geometry" />
        </mxCell>
        <mxCell id="sTvr0ehfiAIf0PpwYISD-40" value="" style="endArrow=diamondThin;endFill=1;endSize=24;html=1;rounded=0;exitX=0.5;exitY=0;exitDx=0;exitDy=0;entryX=0.5;entryY=1;entryDx=0;entryDy=0;fillColor=#b0e3e6;strokeColor=#0e8088;" parent="WIyWlLk6GJQsqaUBKTNV-1" source="sTvr0ehfiAIf0PpwYISD-39" target="sTvr0ehfiAIf0PpwYISD-26" edge="1">
          <mxGeometry width="160" relative="1" as="geometry">
            <mxPoint x="2340" y="260" as="sourcePoint" />
            <mxPoint x="2500" y="260" as="targetPoint" />
          </mxGeometry>
        </mxCell>
        <mxCell id="sTvr0ehfiAIf0PpwYISD-44" value="&lt;font style=&quot;font-size: 11px;&quot;&gt;CourseClass&lt;/font&gt;" style="html=1;whiteSpace=wrap;rounded=1;labelBackgroundColor=none;fillColor=#F45B69;strokeColor=#028090;fontColor=#E4FDE1;" parent="WIyWlLk6GJQsqaUBKTNV-1" vertex="1">
          <mxGeometry x="880" y="620" width="120" height="40" as="geometry" />
        </mxCell>
        <mxCell id="sTvr0ehfiAIf0PpwYISD-45" value="" style="endArrow=block;startArrow=block;endFill=1;startFill=1;html=1;rounded=1;entryX=0.5;entryY=0;entryDx=0;entryDy=0;curved=0;fillColor=#b0e3e6;strokeColor=#0e8088;exitX=1;exitY=0.5;exitDx=0;exitDy=0;" parent="WIyWlLk6GJQsqaUBKTNV-1" source="HRsbSEC_UIwpaZMOYt87-26" target="sTvr0ehfiAIf0PpwYISD-38" edge="1">
          <mxGeometry width="160" relative="1" as="geometry">
            <mxPoint x="850" y="200" as="sourcePoint" />
            <mxPoint x="890" y="390" as="targetPoint" />
            <Array as="points">
              <mxPoint x="880" y="180" />
              <mxPoint x="880" y="330" />
              <mxPoint x="780" y="330" />
            </Array>
          </mxGeometry>
        </mxCell>
        <mxCell id="sTvr0ehfiAIf0PpwYISD-46" value="setGrade" style="edgeLabel;html=1;align=center;verticalAlign=middle;resizable=0;points=[];" parent="sTvr0ehfiAIf0PpwYISD-45" vertex="1" connectable="0">
          <mxGeometry x="-0.0126" y="1" relative="1" as="geometry">
            <mxPoint as="offset" />
          </mxGeometry>
        </mxCell>
        <mxCell id="sTvr0ehfiAIf0PpwYISD-88" value="1" style="edgeLabel;html=1;align=center;verticalAlign=middle;resizable=0;points=[];rotation=0;" parent="sTvr0ehfiAIf0PpwYISD-45" vertex="1" connectable="0">
          <mxGeometry x="-0.951" y="-3" relative="1" as="geometry">
            <mxPoint x="-1" y="7" as="offset" />
          </mxGeometry>
        </mxCell>
        <mxCell id="sTvr0ehfiAIf0PpwYISD-89" value="N" style="edgeLabel;html=1;align=center;verticalAlign=middle;resizable=0;points=[];" parent="sTvr0ehfiAIf0PpwYISD-45" vertex="1" connectable="0">
          <mxGeometry x="0.9296" y="2" relative="1" as="geometry">
            <mxPoint x="-9" as="offset" />
          </mxGeometry>
        </mxCell>
        <mxCell id="sTvr0ehfiAIf0PpwYISD-47" value="" style="endArrow=block;startArrow=block;endFill=1;startFill=1;html=1;rounded=1;exitX=0.5;exitY=1;exitDx=0;exitDy=0;curved=0;fillColor=#b0e3e6;strokeColor=#0e8088;entryX=0.5;entryY=0;entryDx=0;entryDy=0;" parent="WIyWlLk6GJQsqaUBKTNV-1" source="HRsbSEC_UIwpaZMOYt87-25" target="sTvr0ehfiAIf0PpwYISD-38" edge="1">
          <mxGeometry width="160" relative="1" as="geometry">
            <mxPoint x="890" y="280" as="sourcePoint" />
            <mxPoint x="810" y="480" as="targetPoint" />
            <Array as="points">
              <mxPoint x="980" y="350" />
              <mxPoint x="940" y="350" />
              <mxPoint x="890" y="350" />
              <mxPoint x="850" y="350" />
              <mxPoint x="820" y="350" />
              <mxPoint x="780" y="350" />
            </Array>
          </mxGeometry>
        </mxCell>
        <mxCell id="sTvr0ehfiAIf0PpwYISD-48" value="addStudentToCourse" style="edgeLabel;html=1;align=center;verticalAlign=middle;resizable=0;points=[];" parent="sTvr0ehfiAIf0PpwYISD-47" vertex="1" connectable="0">
          <mxGeometry x="-0.0126" y="1" relative="1" as="geometry">
            <mxPoint as="offset" />
          </mxGeometry>
        </mxCell>
        <mxCell id="sTvr0ehfiAIf0PpwYISD-90" value="N" style="edgeLabel;html=1;align=center;verticalAlign=middle;resizable=0;points=[];" parent="sTvr0ehfiAIf0PpwYISD-47" vertex="1" connectable="0">
          <mxGeometry x="0.93" y="2" relative="1" as="geometry">
            <mxPoint x="-9" as="offset" />
          </mxGeometry>
        </mxCell>
        <mxCell id="sTvr0ehfiAIf0PpwYISD-54" value="" style="endArrow=diamondThin;endFill=1;endSize=24;html=1;rounded=1;entryX=0;entryY=0.5;entryDx=0;entryDy=0;exitX=0.5;exitY=1;exitDx=0;exitDy=0;labelBackgroundColor=none;strokeColor=#B20000;fontColor=default;fillColor=#e51400;" parent="WIyWlLk6GJQsqaUBKTNV-1" target="HRsbSEC_UIwpaZMOYt87-47" edge="1">
          <mxGeometry width="160" relative="1" as="geometry">
            <mxPoint x="1340" y="400" as="sourcePoint" />
            <mxPoint x="1480" y="380" as="targetPoint" />
            <Array as="points">
              <mxPoint x="1340" y="420" />
              <mxPoint x="1450" y="420" />
              <mxPoint x="1450" y="300" />
            </Array>
          </mxGeometry>
        </mxCell>
        <mxCell id="sTvr0ehfiAIf0PpwYISD-55" value="" style="endArrow=diamondThin;endFill=1;endSize=24;html=1;rounded=1;entryX=0;entryY=0.5;entryDx=0;entryDy=0;exitX=0.5;exitY=1;exitDx=0;exitDy=0;labelBackgroundColor=none;strokeColor=#B20000;fontColor=default;fillColor=#e51400;" parent="WIyWlLk6GJQsqaUBKTNV-1" target="HRsbSEC_UIwpaZMOYt87-47" edge="1">
          <mxGeometry width="160" relative="1" as="geometry">
            <mxPoint x="1340" y="480" as="sourcePoint" />
            <mxPoint x="1480" y="460" as="targetPoint" />
            <Array as="points">
              <mxPoint x="1340" y="500" />
              <mxPoint x="1450" y="500" />
              <mxPoint x="1450" y="300" />
            </Array>
          </mxGeometry>
        </mxCell>
        <mxCell id="sTvr0ehfiAIf0PpwYISD-59" value="&lt;span style=&quot;text-wrap: nowrap;&quot;&gt;&lt;i&gt;ListMenu&lt;/i&gt;&lt;/span&gt;" style="html=1;whiteSpace=wrap;rounded=1;labelBackgroundColor=none;fillColor=#F45B69;strokeColor=#028090;fontColor=#E4FDE1;" parent="WIyWlLk6GJQsqaUBKTNV-1" vertex="1">
          <mxGeometry x="2200" y="440" width="120" height="40" as="geometry" />
        </mxCell>
        <mxCell id="sTvr0ehfiAIf0PpwYISD-60" value="&lt;span style=&quot;text-wrap: nowrap;&quot;&gt;&lt;i&gt;IconMenu&lt;/i&gt;&lt;/span&gt;" style="html=1;whiteSpace=wrap;rounded=1;labelBackgroundColor=none;fillColor=#F45B69;strokeColor=#028090;fontColor=#E4FDE1;" parent="WIyWlLk6GJQsqaUBKTNV-1" vertex="1">
          <mxGeometry x="2360" y="440" width="120" height="40" as="geometry" />
        </mxCell>
        <mxCell id="sTvr0ehfiAIf0PpwYISD-61" value="" style="endArrow=diamondThin;endFill=1;endSize=24;html=1;rounded=1;exitX=0.5;exitY=0;exitDx=0;exitDy=0;entryX=0.5;entryY=1;entryDx=0;entryDy=0;fillColor=#b0e3e6;strokeColor=#0e8088;curved=0;" parent="WIyWlLk6GJQsqaUBKTNV-1" source="sTvr0ehfiAIf0PpwYISD-59" target="sTvr0ehfiAIf0PpwYISD-39" edge="1">
          <mxGeometry width="160" relative="1" as="geometry">
            <mxPoint x="2340" y="450" as="sourcePoint" />
            <mxPoint x="2340" y="370" as="targetPoint" />
            <Array as="points">
              <mxPoint x="2260" y="400" />
              <mxPoint x="2340" y="400" />
            </Array>
          </mxGeometry>
        </mxCell>
        <mxCell id="sTvr0ehfiAIf0PpwYISD-62" value="" style="endArrow=diamondThin;endFill=1;endSize=24;html=1;rounded=1;exitX=0.5;exitY=0;exitDx=0;exitDy=0;entryX=0.5;entryY=1;entryDx=0;entryDy=0;fillColor=#b0e3e6;strokeColor=#0e8088;curved=0;" parent="WIyWlLk6GJQsqaUBKTNV-1" source="sTvr0ehfiAIf0PpwYISD-60" target="sTvr0ehfiAIf0PpwYISD-39" edge="1">
          <mxGeometry width="160" relative="1" as="geometry">
            <mxPoint x="2440" y="380" as="sourcePoint" />
            <mxPoint x="2440" y="300" as="targetPoint" />
            <Array as="points">
              <mxPoint x="2420" y="400" />
              <mxPoint x="2340" y="400" />
            </Array>
          </mxGeometry>
        </mxCell>
        <mxCell id="sTvr0ehfiAIf0PpwYISD-63" value="&lt;span style=&quot;text-wrap: nowrap;&quot;&gt;&lt;i&gt;SettingsMiniMenu&lt;/i&gt;&lt;/span&gt;" style="html=1;whiteSpace=wrap;rounded=1;labelBackgroundColor=none;fillColor=#F45B69;strokeColor=#028090;fontColor=#E4FDE1;" parent="WIyWlLk6GJQsqaUBKTNV-1" vertex="1">
          <mxGeometry x="2280" y="560" width="120" height="40" as="geometry" />
        </mxCell>
        <mxCell id="sTvr0ehfiAIf0PpwYISD-64" value="&lt;span style=&quot;text-wrap: nowrap;&quot;&gt;&lt;i&gt;ProfileMiniMenu&lt;/i&gt;&lt;/span&gt;" style="html=1;whiteSpace=wrap;rounded=1;labelBackgroundColor=none;fillColor=#F45B69;strokeColor=#028090;fontColor=#E4FDE1;" parent="WIyWlLk6GJQsqaUBKTNV-1" vertex="1">
          <mxGeometry x="2440" y="560" width="120" height="40" as="geometry" />
        </mxCell>
        <mxCell id="sTvr0ehfiAIf0PpwYISD-65" value="" style="endArrow=diamondThin;endFill=1;endSize=24;html=1;rounded=1;exitX=0.5;exitY=0;exitDx=0;exitDy=0;entryX=0.5;entryY=1;entryDx=0;entryDy=0;fillColor=#b0e3e6;strokeColor=#0e8088;curved=0;" parent="WIyWlLk6GJQsqaUBKTNV-1" edge="1">
          <mxGeometry width="160" relative="1" as="geometry">
            <mxPoint x="2340" y="560" as="sourcePoint" />
            <mxPoint x="2420" y="480" as="targetPoint" />
            <Array as="points">
              <mxPoint x="2340" y="520" />
              <mxPoint x="2420" y="520" />
            </Array>
          </mxGeometry>
        </mxCell>
        <mxCell id="sTvr0ehfiAIf0PpwYISD-66" value="" style="endArrow=diamondThin;endFill=1;endSize=24;html=1;rounded=1;exitX=0.5;exitY=0;exitDx=0;exitDy=0;entryX=0.5;entryY=1;entryDx=0;entryDy=0;fillColor=#b0e3e6;strokeColor=#0e8088;curved=0;" parent="WIyWlLk6GJQsqaUBKTNV-1" edge="1">
          <mxGeometry width="160" relative="1" as="geometry">
            <mxPoint x="2500" y="560" as="sourcePoint" />
            <mxPoint x="2420" y="480" as="targetPoint" />
            <Array as="points">
              <mxPoint x="2500" y="520" />
              <mxPoint x="2420" y="520" />
            </Array>
          </mxGeometry>
        </mxCell>
        <mxCell id="sTvr0ehfiAIf0PpwYISD-67" value="" style="endArrow=diamondThin;endFill=1;endSize=24;html=1;rounded=1;exitX=0.75;exitY=0;exitDx=0;exitDy=0;labelBackgroundColor=none;strokeColor=#028090;fontColor=default;entryX=0;entryY=0.5;entryDx=0;entryDy=0;" parent="WIyWlLk6GJQsqaUBKTNV-1" source="sTvr0ehfiAIf0PpwYISD-0" target="HRsbSEC_UIwpaZMOYt87-89" edge="1">
          <mxGeometry width="160" relative="1" as="geometry">
            <mxPoint x="1410" y="640" as="sourcePoint" />
            <mxPoint x="950" y="580" as="targetPoint" />
            <Array as="points">
              <mxPoint x="970" y="380" />
              <mxPoint x="990" y="380" />
            </Array>
          </mxGeometry>
        </mxCell>
        <mxCell id="sTvr0ehfiAIf0PpwYISD-72" value="" style="endArrow=diamondThin;endFill=0;endSize=24;html=1;rounded=1;curved=0;fillColor=#b0e3e6;strokeColor=#0e8088;exitX=1;exitY=0.5;exitDx=0;exitDy=0;entryX=0.25;entryY=1;entryDx=0;entryDy=0;" parent="WIyWlLk6GJQsqaUBKTNV-1" source="sTvr0ehfiAIf0PpwYISD-44" target="HRsbSEC_UIwpaZMOYt87-89" edge="1">
          <mxGeometry width="160" relative="1" as="geometry">
            <mxPoint x="1020" y="539.66" as="sourcePoint" />
            <mxPoint x="1180" y="539.66" as="targetPoint" />
            <Array as="points">
              <mxPoint x="1070" y="640" />
            </Array>
          </mxGeometry>
        </mxCell>
        <mxCell id="sTvr0ehfiAIf0PpwYISD-73" value="N" style="edgeLabel;html=1;align=center;verticalAlign=middle;resizable=0;points=[];" parent="sTvr0ehfiAIf0PpwYISD-72" vertex="1" connectable="0">
          <mxGeometry x="-0.7773" relative="1" as="geometry">
            <mxPoint x="-13" y="-10" as="offset" />
          </mxGeometry>
        </mxCell>
        <mxCell id="sTvr0ehfiAIf0PpwYISD-74" value="" style="endArrow=diamondThin;endFill=0;endSize=24;html=1;rounded=1;curved=0;fillColor=#b0e3e6;strokeColor=#0e8088;entryX=0.5;entryY=0;entryDx=0;entryDy=0;exitX=1;exitY=0.5;exitDx=0;exitDy=0;" parent="WIyWlLk6GJQsqaUBKTNV-1" source="sTvr0ehfiAIf0PpwYISD-38" target="sTvr0ehfiAIf0PpwYISD-44" edge="1">
          <mxGeometry width="160" relative="1" as="geometry">
            <mxPoint x="850" y="510" as="sourcePoint" />
            <mxPoint x="860" y="470" as="targetPoint" />
            <Array as="points">
              <mxPoint x="940" y="500" />
            </Array>
          </mxGeometry>
        </mxCell>
        <mxCell id="sTvr0ehfiAIf0PpwYISD-75" value="N" style="edgeLabel;html=1;align=center;verticalAlign=middle;resizable=0;points=[];" parent="sTvr0ehfiAIf0PpwYISD-74" vertex="1" connectable="0">
          <mxGeometry x="-0.7773" relative="1" as="geometry">
            <mxPoint x="-10" y="-3" as="offset" />
          </mxGeometry>
        </mxCell>
        <mxCell id="sTvr0ehfiAIf0PpwYISD-91" value="" style="endArrow=block;startArrow=block;endFill=1;startFill=1;html=1;rounded=1;exitX=0.5;exitY=1;exitDx=0;exitDy=0;curved=0;fillColor=#b0e3e6;strokeColor=#0e8088;entryX=0.5;entryY=1;entryDx=0;entryDy=0;" parent="WIyWlLk6GJQsqaUBKTNV-1" target="sTvr0ehfiAIf0PpwYISD-44" edge="1">
          <mxGeometry width="160" relative="1" as="geometry">
            <mxPoint x="1180" y="200" as="sourcePoint" />
            <mxPoint x="1160" y="590" as="targetPoint" />
            <Array as="points">
              <mxPoint x="1180" y="360" />
              <mxPoint x="1180" y="600" />
              <mxPoint x="1180" y="680" />
              <mxPoint x="1070" y="680" />
              <mxPoint x="940" y="680" />
            </Array>
          </mxGeometry>
        </mxCell>
        <mxCell id="sTvr0ehfiAIf0PpwYISD-92" value="setTutor" style="edgeLabel;html=1;align=center;verticalAlign=middle;resizable=0;points=[];" parent="sTvr0ehfiAIf0PpwYISD-91" vertex="1" connectable="0">
          <mxGeometry x="-0.0126" y="1" relative="1" as="geometry">
            <mxPoint as="offset" />
          </mxGeometry>
        </mxCell>
        <mxCell id="sTvr0ehfiAIf0PpwYISD-94" value="" style="endArrow=open;html=1;endSize=12;startArrow=diamondThin;startSize=14;startFill=0;edgeStyle=orthogonalEdgeStyle;rounded=1;exitX=0.5;exitY=1;exitDx=0;exitDy=0;entryX=0;entryY=1;entryDx=0;entryDy=0;fillColor=#b0e3e6;strokeColor=#0e8088;curved=0;" parent="WIyWlLk6GJQsqaUBKTNV-1" source="sTvr0ehfiAIf0PpwYISD-4" target="HRsbSEC_UIwpaZMOYt87-89" edge="1">
          <mxGeometry relative="1" as="geometry">
            <mxPoint x="370" y="290" as="sourcePoint" />
            <mxPoint x="430" y="510" as="targetPoint" />
            <Array as="points">
              <mxPoint x="460" y="400" />
            </Array>
          </mxGeometry>
        </mxCell>
        <mxCell id="sTvr0ehfiAIf0PpwYISD-95" value="1" style="edgeLabel;resizable=0;html=1;align=left;verticalAlign=top;" parent="sTvr0ehfiAIf0PpwYISD-94" connectable="0" vertex="1">
          <mxGeometry x="-1" relative="1" as="geometry">
            <mxPoint x="10" as="offset" />
          </mxGeometry>
        </mxCell>
        <mxCell id="sTvr0ehfiAIf0PpwYISD-96" value="N" style="edgeLabel;resizable=0;html=1;align=right;verticalAlign=top;" parent="sTvr0ehfiAIf0PpwYISD-94" connectable="0" vertex="1">
          <mxGeometry x="1" relative="1" as="geometry">
            <mxPoint x="-20" y="-20" as="offset" />
          </mxGeometry>
        </mxCell>
        <mxCell id="sTvr0ehfiAIf0PpwYISD-98" value="&lt;span style=&quot;font-style: italic; text-wrap: nowrap;&quot;&gt;User&lt;/span&gt;" style="html=1;whiteSpace=wrap;rounded=1;labelBackgroundColor=none;fillColor=#F45B69;strokeColor=#028090;fontColor=#E4FDE1;" parent="WIyWlLk6GJQsqaUBKTNV-1" vertex="1">
          <mxGeometry x="960" y="40" width="120" height="40" as="geometry" />
        </mxCell>
        <mxCell id="sTvr0ehfiAIf0PpwYISD-103" value="" style="endArrow=diamondThin;endFill=1;endSize=24;html=1;rounded=1;exitX=1;exitY=0.5;exitDx=0;exitDy=0;fillColor=#F45B69;strokeColor=#028090;labelBackgroundColor=none;fontColor=default;entryX=0;entryY=0.5;entryDx=0;entryDy=0;" parent="WIyWlLk6GJQsqaUBKTNV-1" source="HRsbSEC_UIwpaZMOYt87-22" edge="1" target="sTvr0ehfiAIf0PpwYISD-98">
          <mxGeometry width="160" relative="1" as="geometry">
            <mxPoint x="1080" y="59.620000000000005" as="sourcePoint" />
            <mxPoint x="950" y="30" as="targetPoint" />
            <Array as="points" />
          </mxGeometry>
        </mxCell>
        <mxCell id="wKZJ6vKQrtR2dbG4FHXV-0" value="1" style="edgeLabel;resizable=0;html=1;align=left;verticalAlign=top;" parent="WIyWlLk6GJQsqaUBKTNV-1" connectable="0" vertex="1">
          <mxGeometry x="560" y="200" as="geometry" />
        </mxCell>
        <mxCell id="wKZJ6vKQrtR2dbG4FHXV-2" value="1" style="edgeLabel;html=1;align=center;verticalAlign=middle;resizable=0;points=[];" parent="WIyWlLk6GJQsqaUBKTNV-1" vertex="1" connectable="0">
          <mxGeometry x="970" y="220" as="geometry" />
        </mxCell>
        <mxCell id="wKZJ6vKQrtR2dbG4FHXV-3" value="1" style="edgeLabel;html=1;align=center;verticalAlign=middle;resizable=0;points=[];" parent="WIyWlLk6GJQsqaUBKTNV-1" vertex="1" connectable="0">
          <mxGeometry x="1080" y="420" as="geometry" />
        </mxCell>
        <mxCell id="wKZJ6vKQrtR2dbG4FHXV-4" value="&lt;font data-sider-select-id=&quot;b4814efd-57f5-4d69-ad09-c4e58f126978&quot; style=&quot;font-size: 11px;&quot;&gt;DepartmentCourse&lt;/font&gt;" style="html=1;whiteSpace=wrap;rounded=1;labelBackgroundColor=none;fillColor=#F45B69;strokeColor=#028090;fontColor=#E4FDE1;" parent="WIyWlLk6GJQsqaUBKTNV-1" vertex="1">
          <mxGeometry x="400" y="520" width="120" height="40" as="geometry" />
        </mxCell>
        <mxCell id="wKZJ6vKQrtR2dbG4FHXV-8" value="" style="endArrow=open;html=1;endSize=12;startArrow=diamondThin;startSize=14;startFill=0;edgeStyle=orthogonalEdgeStyle;rounded=1;entryX=0.5;entryY=0;entryDx=0;entryDy=0;fillColor=#b0e3e6;strokeColor=#0e8088;curved=0;exitX=0.5;exitY=1;exitDx=0;exitDy=0;" parent="WIyWlLk6GJQsqaUBKTNV-1" target="wKZJ6vKQrtR2dbG4FHXV-4" edge="1" source="sTvr0ehfiAIf0PpwYISD-4">
          <mxGeometry relative="1" as="geometry">
            <mxPoint x="450" y="90" as="sourcePoint" />
            <mxPoint x="940" y="720" as="targetPoint" />
            <Array as="points" />
          </mxGeometry>
        </mxCell>
        <mxCell id="wKZJ6vKQrtR2dbG4FHXV-9" value="1" style="edgeLabel;resizable=0;html=1;align=left;verticalAlign=top;" parent="wKZJ6vKQrtR2dbG4FHXV-8" connectable="0" vertex="1">
          <mxGeometry x="-1" relative="1" as="geometry">
            <mxPoint x="10" as="offset" />
          </mxGeometry>
        </mxCell>
        <mxCell id="wKZJ6vKQrtR2dbG4FHXV-10" value="N" style="edgeLabel;resizable=0;html=1;align=right;verticalAlign=top;" parent="wKZJ6vKQrtR2dbG4FHXV-8" connectable="0" vertex="1">
          <mxGeometry x="1" relative="1" as="geometry">
            <mxPoint y="-30" as="offset" />
          </mxGeometry>
        </mxCell>
        <mxCell id="wKZJ6vKQrtR2dbG4FHXV-11" value="" style="endArrow=diamondThin;endFill=1;endSize=24;html=1;rounded=1;curved=0;fillColor=#b0e3e6;strokeColor=#0e8088;entryX=1;entryY=0.5;entryDx=0;entryDy=0;exitX=0;exitY=0.5;exitDx=0;exitDy=0;" parent="WIyWlLk6GJQsqaUBKTNV-1" source="sTvr0ehfiAIf0PpwYISD-44" target="wKZJ6vKQrtR2dbG4FHXV-4" edge="1">
          <mxGeometry width="160" relative="1" as="geometry">
            <mxPoint x="790" y="730" as="sourcePoint" />
            <mxPoint x="440" y="640" as="targetPoint" />
            <Array as="points">
              <mxPoint x="760" y="640" />
              <mxPoint x="600" y="640" />
              <mxPoint x="600" y="540" />
            </Array>
          </mxGeometry>
        </mxCell>
        <mxCell id="wKZJ6vKQrtR2dbG4FHXV-14" value="" style="endArrow=diamondThin;endFill=1;endSize=24;html=1;rounded=1;curved=0;fillColor=#b0e3e6;strokeColor=#0e8088;entryX=1;entryY=0.5;entryDx=0;entryDy=0;exitX=0;exitY=0.5;exitDx=0;exitDy=0;" parent="WIyWlLk6GJQsqaUBKTNV-1" source="sTvr0ehfiAIf0PpwYISD-0" target="wKZJ6vKQrtR2dbG4FHXV-4" edge="1">
          <mxGeometry width="160" relative="1" as="geometry">
            <mxPoint x="570" y="450" as="sourcePoint" />
            <mxPoint x="1000" y="550" as="targetPoint" />
            <Array as="points">
              <mxPoint x="690" y="440" />
              <mxPoint x="860" y="440" />
              <mxPoint x="600" y="440" />
              <mxPoint x="600" y="540" />
            </Array>
          </mxGeometry>
        </mxCell>
        <mxCell id="wKZJ6vKQrtR2dbG4FHXV-15" value="" style="endArrow=diamondThin;endFill=1;endSize=24;html=1;rounded=1;curved=0;fillColor=#b0e3e6;strokeColor=#0e8088;entryX=1;entryY=0.5;entryDx=0;entryDy=0;exitX=0.5;exitY=1;exitDx=0;exitDy=0;" parent="WIyWlLk6GJQsqaUBKTNV-1" source="HRsbSEC_UIwpaZMOYt87-89" target="wKZJ6vKQrtR2dbG4FHXV-4" edge="1">
          <mxGeometry width="160" relative="1" as="geometry">
            <mxPoint x="1130" y="510" as="sourcePoint" />
            <mxPoint x="313" y="667" as="targetPoint" />
            <Array as="points">
              <mxPoint x="1100" y="540" />
            </Array>
          </mxGeometry>
        </mxCell>
        <mxCell id="43IzIyjm_DEfvqohUv8_-0" value="&lt;font style=&quot;font-size: 11px;&quot;&gt;ClassDate&lt;/font&gt;" style="html=1;whiteSpace=wrap;rounded=1;labelBackgroundColor=none;fillColor=#F45B69;strokeColor=#028090;fontColor=#E4FDE1;" parent="WIyWlLk6GJQsqaUBKTNV-1" vertex="1">
          <mxGeometry x="510" y="720" width="120" height="40" as="geometry" />
        </mxCell>
        <mxCell id="43IzIyjm_DEfvqohUv8_-1" value="&lt;font style=&quot;font-size: 11px;&quot;&gt;CourseClassDate&lt;/font&gt;" style="html=1;whiteSpace=wrap;rounded=1;labelBackgroundColor=none;fillColor=#F45B69;strokeColor=#028090;fontColor=#E4FDE1;" parent="WIyWlLk6GJQsqaUBKTNV-1" vertex="1">
          <mxGeometry x="720" y="720" width="120" height="40" as="geometry" />
        </mxCell>
        <mxCell id="43IzIyjm_DEfvqohUv8_-2" value="&lt;font style=&quot;font-size: 11px;&quot;&gt;SemesterDetail&lt;/font&gt;" style="html=1;whiteSpace=wrap;rounded=1;labelBackgroundColor=none;fillColor=#F45B69;strokeColor=#028090;fontColor=#E4FDE1;" parent="WIyWlLk6GJQsqaUBKTNV-1" vertex="1">
          <mxGeometry x="280" y="280" width="120" height="40" as="geometry" />
        </mxCell>
        <mxCell id="43IzIyjm_DEfvqohUv8_-7" value="" style="endArrow=open;html=1;endSize=12;startArrow=diamondThin;startSize=14;startFill=0;edgeStyle=orthogonalEdgeStyle;rounded=1;fillColor=#b0e3e6;strokeColor=#0e8088;curved=0;entryX=1;entryY=0.5;entryDx=0;entryDy=0;" parent="WIyWlLk6GJQsqaUBKTNV-1" edge="1" target="43IzIyjm_DEfvqohUv8_-2">
          <mxGeometry relative="1" as="geometry">
            <mxPoint x="460" y="80" as="sourcePoint" />
            <mxPoint x="330" y="180" as="targetPoint" />
            <Array as="points">
              <mxPoint x="460" y="300" />
            </Array>
          </mxGeometry>
        </mxCell>
        <mxCell id="43IzIyjm_DEfvqohUv8_-8" value="N" style="edgeLabel;resizable=0;html=1;align=right;verticalAlign=top;" parent="43IzIyjm_DEfvqohUv8_-7" connectable="0" vertex="1">
          <mxGeometry x="1" relative="1" as="geometry">
            <mxPoint x="20" y="-30" as="offset" />
          </mxGeometry>
        </mxCell>
        <mxCell id="43IzIyjm_DEfvqohUv8_-10" value="" style="endArrow=open;html=1;endSize=12;startArrow=diamondThin;startSize=14;startFill=0;edgeStyle=orthogonalEdgeStyle;rounded=0;exitX=1;exitY=0.5;exitDx=0;exitDy=0;fillColor=#b0e3e6;strokeColor=#0e8088;" parent="WIyWlLk6GJQsqaUBKTNV-1" source="43IzIyjm_DEfvqohUv8_-0" edge="1">
          <mxGeometry relative="1" as="geometry">
            <mxPoint x="670" y="760" as="sourcePoint" />
            <mxPoint x="720" y="740" as="targetPoint" />
            <Array as="points">
              <mxPoint x="720" y="740" />
            </Array>
          </mxGeometry>
        </mxCell>
        <mxCell id="43IzIyjm_DEfvqohUv8_-11" value="N" style="edgeLabel;resizable=0;html=1;align=right;verticalAlign=top;" parent="43IzIyjm_DEfvqohUv8_-10" connectable="0" vertex="1">
          <mxGeometry x="1" relative="1" as="geometry">
            <mxPoint y="-30" as="offset" />
          </mxGeometry>
        </mxCell>
        <mxCell id="43IzIyjm_DEfvqohUv8_-13" value="1" style="edgeLabel;resizable=0;html=1;align=left;verticalAlign=top;" parent="WIyWlLk6GJQsqaUBKTNV-1" connectable="0" vertex="1">
          <mxGeometry x="640" y="710" as="geometry" />
        </mxCell>
        <mxCell id="43IzIyjm_DEfvqohUv8_-18" value="" style="endArrow=open;html=1;endSize=12;startArrow=diamondThin;startSize=14;startFill=0;edgeStyle=orthogonalEdgeStyle;rounded=0;exitX=0.149;exitY=0.959;exitDx=0;exitDy=0;fillColor=#b0e3e6;strokeColor=#0e8088;entryX=1;entryY=0.5;entryDx=0;entryDy=0;exitPerimeter=0;" parent="WIyWlLk6GJQsqaUBKTNV-1" source="sTvr0ehfiAIf0PpwYISD-44" target="43IzIyjm_DEfvqohUv8_-1" edge="1">
          <mxGeometry relative="1" as="geometry">
            <mxPoint x="870" y="730" as="sourcePoint" />
            <mxPoint x="890" y="690" as="targetPoint" />
            <Array as="points">
              <mxPoint x="898" y="740" />
            </Array>
          </mxGeometry>
        </mxCell>
        <mxCell id="43IzIyjm_DEfvqohUv8_-19" value="N" style="edgeLabel;resizable=0;html=1;align=right;verticalAlign=top;" parent="43IzIyjm_DEfvqohUv8_-18" connectable="0" vertex="1">
          <mxGeometry x="1" relative="1" as="geometry">
            <mxPoint x="10" y="-30" as="offset" />
          </mxGeometry>
        </mxCell>
        <mxCell id="43IzIyjm_DEfvqohUv8_-20" value="1" style="edgeLabel;resizable=0;html=1;align=left;verticalAlign=top;" parent="WIyWlLk6GJQsqaUBKTNV-1" connectable="0" vertex="1">
          <mxGeometry x="870" y="650" as="geometry" />
        </mxCell>
        <mxCell id="MKGVMaMALqnWeJGYddXh-0" value="" style="endArrow=classic;html=1;rounded=1;fontSize=12;startSize=8;endSize=8;curved=0;strokeColor=#860e1a;exitX=0.25;exitY=0;exitDx=0;exitDy=0;entryX=0.5;entryY=1;entryDx=0;entryDy=0;" edge="1" parent="WIyWlLk6GJQsqaUBKTNV-1" source="sTvr0ehfiAIf0PpwYISD-38" target="sTvr0ehfiAIf0PpwYISD-5">
          <mxGeometry width="50" height="50" relative="1" as="geometry">
            <mxPoint x="640" y="380" as="sourcePoint" />
            <mxPoint x="690" y="330" as="targetPoint" />
            <Array as="points">
              <mxPoint x="750" y="360" />
              <mxPoint x="580" y="360" />
            </Array>
          </mxGeometry>
        </mxCell>
        <mxCell id="MKGVMaMALqnWeJGYddXh-1" value="" style="endArrow=classic;html=1;rounded=1;fontSize=12;startSize=8;endSize=8;curved=0;strokeColor=#860e1a;exitX=1;exitY=0.5;exitDx=0;exitDy=0;entryX=1;entryY=0.5;entryDx=0;entryDy=0;" edge="1" parent="WIyWlLk6GJQsqaUBKTNV-1" source="sTvr0ehfiAIf0PpwYISD-44" target="sTvr0ehfiAIf0PpwYISD-6">
          <mxGeometry width="50" height="50" relative="1" as="geometry">
            <mxPoint x="1260" y="610" as="sourcePoint" />
            <mxPoint x="1120" y="450" as="targetPoint" />
            <Array as="points">
              <mxPoint x="1240" y="640" />
              <mxPoint x="1240" y="490" />
              <mxPoint x="1240" y="300" />
            </Array>
          </mxGeometry>
        </mxCell>
        <mxCell id="MKGVMaMALqnWeJGYddXh-2" value="" style="endArrow=block;startArrow=block;endFill=1;startFill=1;html=1;rounded=1;entryX=1;entryY=0.5;entryDx=0;entryDy=0;curved=0;fillColor=#b0e3e6;strokeColor=#0e8088;exitX=1;exitY=0.5;exitDx=0;exitDy=0;" edge="1" parent="WIyWlLk6GJQsqaUBKTNV-1" source="HRsbSEC_UIwpaZMOYt87-26" target="sTvr0ehfiAIf0PpwYISD-44">
          <mxGeometry width="160" relative="1" as="geometry">
            <mxPoint x="850" y="190" as="sourcePoint" />
            <mxPoint x="790" y="490" as="targetPoint" />
            <Array as="points">
              <mxPoint x="900" y="180" />
              <mxPoint x="900" y="240" />
              <mxPoint x="900" y="280" />
              <mxPoint x="1260" y="280" />
              <mxPoint x="1260" y="640" />
            </Array>
          </mxGeometry>
        </mxCell>
        <mxCell id="MKGVMaMALqnWeJGYddXh-3" value="teaches" style="edgeLabel;html=1;align=center;verticalAlign=middle;resizable=0;points=[];" vertex="1" connectable="0" parent="MKGVMaMALqnWeJGYddXh-2">
          <mxGeometry x="-0.0126" y="1" relative="1" as="geometry">
            <mxPoint x="-181" y="-43" as="offset" />
          </mxGeometry>
        </mxCell>
        <mxCell id="MKGVMaMALqnWeJGYddXh-6" value="" style="endArrow=block;startArrow=block;endFill=1;startFill=1;html=1;rounded=1;entryX=0;entryY=0.5;entryDx=0;entryDy=0;curved=0;fillColor=#b0e3e6;strokeColor=#0e8088;exitX=1;exitY=0.5;exitDx=0;exitDy=0;" edge="1" parent="WIyWlLk6GJQsqaUBKTNV-1" target="sTvr0ehfiAIf0PpwYISD-38">
          <mxGeometry width="160" relative="1" as="geometry">
            <mxPoint x="640" y="180" as="sourcePoint" />
            <mxPoint x="580" y="480" as="targetPoint" />
            <Array as="points">
              <mxPoint x="680" y="180" />
              <mxPoint x="680" y="330" />
              <mxPoint x="680" y="500" />
            </Array>
          </mxGeometry>
        </mxCell>
        <mxCell id="MKGVMaMALqnWeJGYddXh-7" value="participates" style="edgeLabel;html=1;align=center;verticalAlign=middle;resizable=0;points=[];" vertex="1" connectable="0" parent="MKGVMaMALqnWeJGYddXh-6">
          <mxGeometry x="-0.0126" y="1" relative="1" as="geometry">
            <mxPoint as="offset" />
          </mxGeometry>
        </mxCell>
        <mxCell id="MKGVMaMALqnWeJGYddXh-8" value="1" style="edgeLabel;html=1;align=center;verticalAlign=middle;resizable=0;points=[];rotation=0;" vertex="1" connectable="0" parent="MKGVMaMALqnWeJGYddXh-6">
          <mxGeometry x="-0.951" y="-3" relative="1" as="geometry">
            <mxPoint x="-1" y="7" as="offset" />
          </mxGeometry>
        </mxCell>
        <mxCell id="MKGVMaMALqnWeJGYddXh-9" value="N" style="edgeLabel;html=1;align=center;verticalAlign=middle;resizable=0;points=[];" vertex="1" connectable="0" parent="MKGVMaMALqnWeJGYddXh-6">
          <mxGeometry x="0.9296" y="2" relative="1" as="geometry">
            <mxPoint x="-9" as="offset" />
          </mxGeometry>
        </mxCell>
        <mxCell id="MKGVMaMALqnWeJGYddXh-10" value="&lt;font style=&quot;font-size: 11px;&quot;&gt;StudentCourseSelection&lt;/font&gt;" style="html=1;whiteSpace=wrap;rounded=1;labelBackgroundColor=none;fillColor=#F45B69;strokeColor=#028090;fontColor=#E4FDE1;" vertex="1" parent="WIyWlLk6GJQsqaUBKTNV-1">
          <mxGeometry x="280" y="360" width="120" height="40" as="geometry" />
        </mxCell>
        <mxCell id="MKGVMaMALqnWeJGYddXh-11" value="&lt;font style=&quot;font-size: 11px;&quot;&gt;StudentCourseSelect&lt;/font&gt;" style="html=1;whiteSpace=wrap;rounded=1;labelBackgroundColor=none;fillColor=#F45B69;strokeColor=#028090;fontColor=#E4FDE1;" vertex="1" parent="WIyWlLk6GJQsqaUBKTNV-1">
          <mxGeometry x="50" y="360" width="120" height="40" as="geometry" />
        </mxCell>
        <mxCell id="MKGVMaMALqnWeJGYddXh-12" value="1" style="endArrow=open;html=1;endSize=12;startArrow=diamondThin;startSize=14;startFill=1;edgeStyle=orthogonalEdgeStyle;align=left;verticalAlign=bottom;rounded=0;exitX=0;exitY=0.5;exitDx=0;exitDy=0;entryX=1;entryY=0.5;entryDx=0;entryDy=0;movable=1;resizable=1;rotatable=1;deletable=1;editable=1;locked=0;connectable=1;fillColor=#b0e3e6;strokeColor=#0e8088;" edge="1" parent="WIyWlLk6GJQsqaUBKTNV-1" source="MKGVMaMALqnWeJGYddXh-10" target="MKGVMaMALqnWeJGYddXh-11">
          <mxGeometry x="-0.6364" relative="1" as="geometry">
            <mxPoint x="140" y="310" as="sourcePoint" />
            <mxPoint x="220" y="310" as="targetPoint" />
            <mxPoint as="offset" />
          </mxGeometry>
        </mxCell>
        <mxCell id="MKGVMaMALqnWeJGYddXh-13" value="N" style="edgeLabel;html=1;align=center;verticalAlign=middle;resizable=0;points=[];movable=0;rotatable=0;deletable=0;editable=0;locked=1;connectable=0;" vertex="1" connectable="0" parent="MKGVMaMALqnWeJGYddXh-12">
          <mxGeometry x="0.2837" y="2" relative="1" as="geometry">
            <mxPoint x="9" y="-8" as="offset" />
          </mxGeometry>
        </mxCell>
        <mxCell id="MKGVMaMALqnWeJGYddXh-14" value="" style="endArrow=block;startArrow=block;endFill=1;startFill=1;html=1;rounded=1;entryX=0.5;entryY=0;entryDx=0;entryDy=0;curved=0;fillColor=#b0e3e6;strokeColor=#0e8088;exitX=0;exitY=0.5;exitDx=0;exitDy=0;" edge="1" parent="WIyWlLk6GJQsqaUBKTNV-1" source="HRsbSEC_UIwpaZMOYt87-24" target="MKGVMaMALqnWeJGYddXh-10">
          <mxGeometry width="160" relative="1" as="geometry">
            <mxPoint x="210" y="130" as="sourcePoint" />
            <mxPoint x="290" y="450" as="targetPoint" />
            <Array as="points">
              <mxPoint x="250" y="180" />
              <mxPoint x="250" y="280" />
              <mxPoint x="250" y="340" />
              <mxPoint x="340" y="340" />
            </Array>
          </mxGeometry>
        </mxCell>
        <mxCell id="MKGVMaMALqnWeJGYddXh-16" value="1" style="edgeLabel;html=1;align=center;verticalAlign=middle;resizable=0;points=[];rotation=0;" vertex="1" connectable="0" parent="MKGVMaMALqnWeJGYddXh-14">
          <mxGeometry x="-0.951" y="-3" relative="1" as="geometry">
            <mxPoint x="-1" y="7" as="offset" />
          </mxGeometry>
        </mxCell>
        <mxCell id="MKGVMaMALqnWeJGYddXh-17" value="N" style="edgeLabel;html=1;align=center;verticalAlign=middle;resizable=0;points=[];" vertex="1" connectable="0" parent="MKGVMaMALqnWeJGYddXh-14">
          <mxGeometry x="0.9296" y="2" relative="1" as="geometry">
            <mxPoint x="-9" as="offset" />
          </mxGeometry>
        </mxCell>
        <mxCell id="MKGVMaMALqnWeJGYddXh-19" value="" style="endArrow=block;startArrow=block;endFill=1;startFill=1;html=1;rounded=1;entryX=0.5;entryY=0;entryDx=0;entryDy=0;curved=0;fillColor=#b0e3e6;strokeColor=#0e8088;exitX=0.25;exitY=0;exitDx=0;exitDy=0;" edge="1" parent="WIyWlLk6GJQsqaUBKTNV-1" source="HRsbSEC_UIwpaZMOYt87-25">
          <mxGeometry width="160" relative="1" as="geometry">
            <mxPoint x="520" y="180" as="sourcePoint" />
            <mxPoint x="340" y="360" as="targetPoint" />
            <Array as="points">
              <mxPoint x="950" y="140" />
              <mxPoint x="900" y="140" />
              <mxPoint x="400" y="140" />
              <mxPoint x="250" y="140" />
              <mxPoint x="250" y="280" />
              <mxPoint x="250" y="340" />
              <mxPoint x="340" y="340" />
            </Array>
          </mxGeometry>
        </mxCell>
        <mxCell id="MKGVMaMALqnWeJGYddXh-20" value="select" style="edgeLabel;html=1;align=center;verticalAlign=middle;resizable=0;points=[];" vertex="1" connectable="0" parent="MKGVMaMALqnWeJGYddXh-19">
          <mxGeometry x="-0.0126" y="1" relative="1" as="geometry">
            <mxPoint x="-101" y="39" as="offset" />
          </mxGeometry>
        </mxCell>
        <mxCell id="MKGVMaMALqnWeJGYddXh-21" value="1" style="edgeLabel;html=1;align=center;verticalAlign=middle;resizable=0;points=[];rotation=0;" vertex="1" connectable="0" parent="MKGVMaMALqnWeJGYddXh-19">
          <mxGeometry x="-0.951" y="-3" relative="1" as="geometry">
            <mxPoint x="-1" y="7" as="offset" />
          </mxGeometry>
        </mxCell>
        <mxCell id="MKGVMaMALqnWeJGYddXh-25" value="view/approve/deny" style="edgeLabel;html=1;align=center;verticalAlign=middle;resizable=0;points=[];fontSize=12;" vertex="1" connectable="0" parent="MKGVMaMALqnWeJGYddXh-19">
          <mxGeometry x="0.1922" y="-1" relative="1" as="geometry">
            <mxPoint x="14" as="offset" />
          </mxGeometry>
        </mxCell>
      </root>
    </mxGraphModel>
  </diagram>
</mxfile>
